<svg width="22" height="22" viewBox="0 0 22 22" fill="none" xmlns="http://www.w3.org/2000/svg">
<path d="M11.0519 13.8285L12.4661 15.2427L16.7088 11L12.4661 6.7574L11.0519 8.17161L12.8804 10H5.34321V12H12.8803L11.0519 13.8285Z" fill="black"/>
<path fill-rule="evenodd" clip-rule="evenodd" d="M18.7782 18.7782C23.0739 14.4824 23.0739 7.51759 18.7782 3.22183C14.4824 -1.07394 7.51759 -1.07394 3.22183 3.22183C-1.07394 7.51759 -1.07394 14.4824 3.22183 18.7782C7.51759 23.0739 14.4824 23.0739 18.7782 18.7782ZM17.364 17.364C20.8787 13.8492 20.8787 8.15076 17.364 4.63604C13.8492 1.12132 8.15076 1.12132 4.63604 4.63604C1.12132 8.15076 1.12132 13.8492 4.63604 17.364C8.15076 20.8787 13.8492 20.8787 17.364 17.364Z" fill="black"/>
</svg>
